            <svg xmlns="http://www.w3.org/2000/svg" width="100%" viewBox="0 0 43 75" fill="none" height="100%" class="note-num">
              <path opacity="1" fill-rule="evenodd" clip-rule="evenodd" d="M0 73.7999V62.9665L23.8425 39.3261C30.8879 32.482 34.2 28.7101 34.2 22.9999C34.2 20.1929 33.2217 17.8837 31.5567 16.2753C29.8895 14.6648 27.4741 13.6999 24.5 13.6999C21.2373 13.6999 18.5391 15.0444 16.6794 17.2967C14.8117 19.5588 13.7556 22.7822 13.8994 26.5695L13.931 27.3999H0.616493L0.600174 26.6166C0.291241 11.7878 10.7324 0.899902 25.1 0.899902C38.5193 0.899902 47.8 10.3359 47.8 22.4999C47.8 33.1815 41.0269 40.1022 32.767 47.9647L20.5554 60.8999H48.4V73.7999H0ZM18.7 61.6999L32.2 47.3999C40.5 39.4999 47 32.7999 47 22.4999C47 10.7999 38.1 1.6999 25.1 1.6999C11.2 1.6999 1.1 12.1999 1.4 26.5999H13.1C13.0898 26.3308 13.0854 26.064 13.0866 25.7999C13.1229 18.3114 17.7385 12.8999 24.5 12.8999C30.8 12.8999 35 16.9999 35 22.9999C35 29.0999 31.4 33.0999 24.4 39.8999L0.8 63.2999V72.9999H47.6V61.6999H18.7Z" fill="currentColor"></path>
            </svg>