            <svg xmlns="http://www.w3.org/2000/svg" width="100%" viewBox="0 0 50 75" fill="none" height="100%" class="note-num">
              <path opacity="1" fill-rule="evenodd" clip-rule="evenodd" d="M0.905077 50.8999H14.1992V51.6999C14.1992 57.8364 19.019 62.6999 25.6992 62.6999C32.2382 62.6999 36.8992 58.3813 36.8992 52.6999C36.8992 47.4104 32.1474 43.1999 24.2992 43.1999H20.7992V31.4999H24.2992C31.6354 31.4999 36.1992 27.3989 36.1992 22.3999C36.1992 17.1344 31.956 13.2999 25.7992 13.2999C19.4028 13.2999 14.9992 17.579 14.9992 23.4999V24.307L1.99917 24.1929V23.3999C1.99917 10.416 12.1006 0.899902 25.7992 0.899902C32.7479 0.899902 38.6448 2.8932 42.8184 6.45379C47.0032 10.0239 49.3992 15.1245 49.3992 21.1999C49.3992 27.8554 45.8431 33.6908 39.7067 37.0898C46.474 39.9458 50.4992 45.9785 50.4992 53.4999C50.4992 66.0402 39.9356 75.0999 25.8992 75.0999C18.6287 75.0999 12.3501 72.7686 7.89369 68.6499C3.43123 64.5257 0.847627 58.6557 0.899195 51.694L0.905077 50.8999ZM38.775 37.5773C38.4237 37.4428 38.065 37.317 37.6992 37.1999C38.0494 37.0426 38.3922 36.8777 38.7273 36.7057C44.9949 33.4885 48.5992 27.7497 48.5992 21.1999C48.5992 9.4999 39.3992 1.6999 25.7992 1.6999C12.7845 1.6999 3.21704 10.5094 2.81251 22.6C2.80831 22.7255 2.8051 22.8514 2.80288 22.9776C2.80041 23.1179 2.79917 23.2587 2.79917 23.3999L14.1992 23.4999C14.1992 23.4251 14.1998 23.3506 14.2011 23.2763C14.3116 16.993 19.0786 12.4999 25.7992 12.4999C32.2992 12.4999 36.9992 16.5999 36.9992 22.3999C36.9992 27.9999 31.8992 32.2999 24.2992 32.2999H21.5992V42.3999H24.2992C32.3992 42.3999 37.6992 46.7999 37.6992 52.6999C37.6992 58.8999 32.5992 63.4999 25.6992 63.4999C18.5992 63.4999 13.3992 58.2999 13.3992 51.6999H1.69917C1.69819 51.8325 1.69819 51.9647 1.69917 52.0965C1.70018 52.2314 1.70221 52.3659 1.70526 52.4999C2.00243 65.5582 11.9815 74.2999 25.8992 74.2999C39.5992 74.2999 49.6992 65.4999 49.6992 53.4999C49.6992 46.0803 45.6274 40.199 38.775 37.5773Z" fill="currentColor"></path>
            </svg>