<svg width="1231" height="400" viewBox="0 0 1231 400" fill="none" xmlns="http://www.w3.org/2000/svg">
<path fill-rule="evenodd" clip-rule="evenodd" d="M922.505 224.168C922.505 256.979 895.906 283.576 863.096 283.576C830.285 283.576 803.687 256.979 803.687 224.168C803.687 191.355 830.285 164.758 863.096 164.758C873.981 164.758 884.183 167.686 892.956 172.797V116H922.505V187.088C922.505 187.088 925.35 189.012 927.443 189.322C931.95 189.99 937.774 183.904 937.774 183.904C945.227 183.904 951.268 191.363 951.268 199.787C951.268 208.213 945.227 215.672 937.774 215.672C937.774 215.672 931.95 209.586 927.443 210.254C926.513 210.393 925.434 210.85 924.521 211.314C923.383 211.895 922.505 212.488 922.505 212.488V224.168ZM863.096 254.027C879.587 254.027 892.956 240.658 892.956 224.168C892.956 207.676 879.587 194.307 863.096 194.307C846.604 194.307 833.235 207.676 833.235 224.168C833.235 240.658 846.604 254.027 863.096 254.027ZM792.791 247.332C783.763 268.633 762.66 283.576 738.067 283.576C705.257 283.576 678.658 256.979 678.658 224.168C678.658 191.355 705.257 164.758 738.067 164.758C748.953 164.758 759.154 167.686 767.928 172.797C785.6 183.09 797.477 202.242 797.477 224.168C797.477 228.695 796.97 233.105 796.011 237.344H764.871H711.264C716.132 247.227 726.306 254.027 738.067 254.027C745.212 254.027 751.771 251.518 756.91 247.332H792.791ZM738.067 194.307C750.012 194.307 760.317 201.32 765.093 211.453H711.042C715.817 201.32 726.123 194.307 738.067 194.307ZM550.978 164.758C523.376 164.758 501 187.133 501 214.734V283.207H530.27V214.734C530.27 203.299 539.541 194.027 550.978 194.027C562.414 194.027 571.686 203.299 571.686 214.734V283.207H600.955V214.734C600.955 203.299 610.227 194.027 621.663 194.027C633.1 194.027 642.371 203.299 642.371 214.734V283.207H671.641V214.734C671.641 187.133 649.265 164.758 621.663 164.758C607.86 164.758 595.365 170.352 586.32 179.398C577.275 170.352 564.78 164.758 550.978 164.758Z" fill="black"/>
<path fill-rule="evenodd" clip-rule="evenodd" d="M1171.16 283.395C1181.89 283.395 1191.96 280.547 1200.65 275.566V283.395H1230.57V223.984C1230.57 191.172 1203.97 164.574 1171.16 164.574C1138.35 164.574 1111.75 191.172 1111.75 223.984C1111.75 256.795 1138.35 283.395 1171.16 283.395ZM1171.16 253.477C1187.45 253.477 1200.65 240.271 1200.65 223.98C1200.65 207.689 1187.45 194.484 1171.16 194.484C1154.87 194.484 1141.66 207.689 1141.66 223.98C1141.66 240.271 1154.87 253.477 1171.16 253.477ZM1088.67 214.734C1088.67 203.299 1097.94 194.027 1109.38 194.027V164.758C1081.78 164.758 1059.4 187.133 1059.4 214.734V283.207H1088.67V214.734ZM991.81 283.576C1016.4 283.576 1037.5 268.633 1046.53 247.332H1010.65C1005.51 251.518 998.954 254.027 991.81 254.027C980.048 254.027 969.874 247.227 965.006 237.344H1018.61H1049.75C1050.71 233.105 1051.22 228.695 1051.22 224.168C1051.22 202.242 1039.34 183.09 1021.67 172.797C1012.9 167.686 1002.7 164.758 991.81 164.758C976.058 164.758 961.737 170.889 951.104 180.895C956.302 185.414 959.588 192.078 959.588 199.508C959.588 213.127 948.548 224.166 934.928 224.166C934.075 224.166 933.231 224.123 932.4 224.039V224.168C932.4 256.979 958.999 283.576 991.81 283.576ZM1018.83 211.453C1014.06 201.32 1003.75 194.307 991.81 194.307C979.865 194.307 969.56 201.32 964.784 211.453H1018.83Z" fill="black"/>
<path d="M125.778 244.185V386.748L7.5 315.726V173.163L125.778 244.185ZM259.057 315.725L140.778 386.748V244.185L259.057 173.163V315.725ZM251.986 159.911L133.277 231.193L14.5693 159.911L133.278 88.6284L251.986 159.911Z" fill="black" stroke="#FEFFFA" stroke-width="15"/>
<path d="M259.222 164.304V306.866L140.943 235.845V93.2812L259.222 164.304ZM392.5 235.844L274.222 306.866V164.304L392.5 93.2812V235.844ZM385.43 80.0293L266.721 151.312L148.013 80.0293L266.722 8.74707L385.43 80.0293Z" fill="black" stroke="#FEFFFA" stroke-width="15"/>
</svg>
