<svg xmlns="http://www.w3.org/2000/svg" width="100%" viewBox="0 0 185 33" fill="none" class="note-nav-logo"><path d="M172.152 32.0981V16.4236H175.52V28.9383H185V32.0981H172.152ZM172.152 16.4236V0.749023H185V3.90888H180.218C177.516 3.90888 175.52 5.863 175.52 8.56551C175.52 11.268 177.516 13.2637 180.218 13.2637H185V16.4236H172.152Z" fill="currentColor"></path><path d="M167.962 16.4229C167.962 20.9548 166.798 24.281 164.511 27.1082C161.559 30.7255 157.027 32.8043 151.872 32.8043C142.766 32.8043 135.49 25.6946 135.49 16.4229H139.024C139.024 23.7821 144.554 29.4366 151.872 29.4366C156.445 29.4366 160.353 27.233 162.224 24.0315C163.264 22.2437 162.474 19.5828 160.312 19.5828H150.541V16.4229H167.962ZM151.872 0C156.445 0 160.561 1.78781 163.513 4.73978L161.102 7.19283C158.773 4.82294 155.53 3.36774 151.872 3.36774C144.554 3.36774 139.024 9.10537 139.024 16.4229H135.49C135.49 7.15125 142.766 0 151.872 0Z" fill="currentColor"></path><path d="M115.024 0.749023C124.919 0.749023 131.946 7.35977 131.946 16.4236H128.412C128.412 9.18917 123.173 3.90888 115.024 3.90888H109.827V16.4236H106.459V0.749023H115.024ZM115.024 32.0981H106.459V16.4236H109.827V23.7411C109.827 26.61 112.155 28.9383 115.024 28.9383C123.173 28.9383 128.412 23.658 128.412 16.4236H131.946C131.946 25.4874 124.919 32.0981 115.024 32.0981Z" fill="currentColor"></path><path d="M98.6494 3.90888C97.1111 3.90888 95.9053 5.11461 95.9053 6.61139V16.4236H92.5376V6.61139C92.5376 5.11461 91.2903 3.90888 89.7935 3.90888H86.7168V0.749023H101.726V3.90888H98.6494ZM89.7935 28.9798C91.2903 28.9798 92.5376 27.7325 92.5376 26.2358V16.4236H95.9053V26.2358C95.9053 27.7325 97.1111 28.9798 98.6494 28.9798H101.726V32.0981H86.7168V28.9798H89.7935Z" fill="currentColor"></path><path d="M75.171 13.2637C77.7072 13.2637 79.8692 11.3512 79.9939 8.81497C80.1186 6.15404 77.9982 3.90888 75.3373 3.90888H70.3896C67.7703 3.90888 65.6914 6.02931 65.6914 8.60709C65.6914 11.1849 67.7703 13.2637 70.3896 13.2637H75.171ZM75.5452 0.749023C79.7444 0.749023 83.4448 4.19992 83.528 8.3992C83.6111 12.8064 80.0771 16.4236 75.7115 16.4236H62.3652V0.749023H75.5452ZM83.8606 32.0981H80.0771L71.5953 16.4236H75.462L83.8606 32.0981ZM65.733 32.0981H62.3652V16.4236H65.733V32.0981Z" fill="currentColor"></path><path d="M54.8867 16.4236C56.5498 18.1282 57.5892 20.3318 57.5892 22.7017C57.5892 27.8573 53.3484 32.0981 48.1512 32.0981H34.3477V16.4236H37.7154V28.9383H47.8186C51.3111 28.9383 54.0552 26.111 54.0552 22.6601C54.0552 19.5419 51.1032 16.673 47.6939 16.4236H54.8867ZM48.3175 8.77339C48.4007 6.07088 46.3219 3.90888 43.6193 3.90888H42.372C39.7527 3.90888 37.6738 5.94616 37.6738 8.56551C37.6738 11.2264 39.7527 13.2637 42.372 13.2637H43.4946C46.0724 13.2637 48.2344 11.3512 48.3175 8.77339ZM50.0638 13.5963C51.9348 14.0953 53.5978 15.0931 54.8867 16.4236H34.3477V0.749023H43.9104C47.9018 0.749023 51.5606 3.99203 51.8516 7.98343C52.0179 10.1454 51.3111 12.0996 50.0638 13.5963Z" fill="currentColor"></path><path d="M30.8918 32.0981H27.2746L24.2394 25.3211C22.7011 21.8286 19.2502 19.5834 15.4251 19.5834C11.6416 19.5834 8.19068 21.8286 6.65233 25.3211L3.6172 32.0981H0L6.98495 16.4236H23.9068L30.8918 32.0981ZM10.6021 16.4236H6.98495L13.9699 0.749023H16.9219L23.9068 16.4236H20.2896L15.4667 5.57196L10.6021 16.4236Z" fill="currentColor"></path></svg>